<svg xmlns="http://www.w3.org/2000/svg" width="287.12" height="285.33" viewBox="0 0 287.12 285.33">
	<style type="text/css">
		.st1{fill:#61c5cc;stroke-linecap:round;stroke-linejoin:round;}
		.st0{stroke:#61469b;fill:none;stroke-width:10;stroke-linecap:round;stroke-linejoin:round;}
	</style>
	<path class="st0" d="M246.13,70.15C248.27,61.27 252.01,50.75 258.39,44.25C258.39,44.25 281.32,44.85 282.12,21.22C282.12,21.22 264.77,18.41 251.21,28.63C251.21,28.63 244.03,8.4 223.09,5C223.09,5 219.9,33.23 238.05,43.84C238.05,43.84 227.48,64.47 201.56,64.47C159.68,64.47 132.56,35.23 82.7,35.23C32.85,35.23 7.12,67.88 7.12,67.88"/>
	<path class="st0" d="M59.17,8.82C59.17,8.82 82.7,3.88 82.7,29.91"/>
	<path class="st0" d="M106.23,8.82C106.23,8.82 82.7,3.88 82.7,29.91"/>
	<path class="st1" d="M98.86,180.68C98.96,177.43 101.06,175.32 103.9,175.4C106.75,175.49 108.71,177.71 108.61,180.96L107.85,206.98C107.75,210.23 105.66,212.34 102.81,212.25C99.97,212.17 98,209.94 98.09,206.69ZM109.66,166.28C109.57,169.33 107.05,171.83 104,171.74C101.09,171.66 98.6,168.94 98.69,165.96C98.77,163.18 101.42,160.68 104.33,160.77C107.24,160.86 109.74,163.44 109.66,166.28"/>
	<path class="st1" d="M114.04,181.12C114.14,177.87 116.23,175.77 119.08,175.85C121.58,175.92 123.17,177.33 123.44,179.57C125.41,176.98 128.37,175.72 132.97,175.85C140.63,176.08 146.17,181.12 145.93,189.39L145.38,208.08C145.28,211.33 143.19,213.44 140.34,213.36C137.5,213.27 135.53,211.05 135.63,207.79L136.13,190.79C136.26,186.25 133.48,184 129.96,183.9C125.96,183.78 123.64,186.63 123.53,190.42L123.03,207.42C122.93,210.68 120.83,212.78 117.99,212.7C115.14,212.62 113.18,210.39 113.27,207.14Z"/>
	<path class="st1" d="M35.42,213.7L31,211.15L37.1,200.55C38.16,199.01 38.46,197.21 37.96,195.36C37.46,193.51 36.33,192.07 34.6,191.07C33.77,190.6 32.85,190.25 31.87,190.05L31.68,190.01L31.49,190.02C28.78,190.16 26.66,191.43 25.35,193.71L19.21,204.37L17.74,203.52C15.43,202.2 13.04,202.24 10.86,203.65C9.31,204.44 7.52,206.09 7.51,209.37C7.36,212.07 8.57,214.14 10.95,215.31L12.43,216.16L2.8,232.89C0.37,237.12 -0.48,241.27 0.25,245.2C1.08,250.27 4.4,254.26 10.12,257.06L13.84,258.48L13.98,258.53C14.64,258.71 15.29,258.8 15.92,258.8C17.68,258.8 19.27,258.11 20.64,256.73C23.02,254.26 23,251.81 22.56,250.19C21.83,247.47 20.01,245.72 17.26,245.1C15.96,244.84 15.05,244.4 14.55,243.8L14.32,243.57C13.92,243.26 13.68,242.95 13.65,242.71L13.61,242.5C13.57,242.37 13.46,241.63 14.59,239.67L24.22,222.94L28.55,225.44C30.8,226.93 33.26,226.99 35.6,225.62C37.92,224.26 39.08,222.24 38.93,219.77C38.93,217.12 37.71,215.02 35.42,213.7"/>
	<path class="st1" d="M50.06,244.41C48.01,251 49.19,259.32 56.64,261.64C64.08,263.95 69.78,257.76 71.83,251.18C73.88,244.59 72.85,236.1 65.31,233.75C57.76,231.41 52.11,237.82 50.06,244.41M85.58,255.45C81.12,269.78 67.52,278.84 52.72,274.24C37.92,269.64 31.85,254.45 36.31,240.13C40.64,226.19 54.71,216.64 69.23,221.15C83.74,225.66 89.91,241.51 85.58,255.45"/>
	<path class="st1" d="M135.98,285.33C132.28,285.21 129.94,283.14 129.54,279.83C126.62,283.64 122.27,285.5 115.47,285.29C104.17,284.94 96,277.48 96.38,265.29L97.24,237.7C97.39,232.91 100.49,229.8 104.69,229.93C108.89,230.06 111.78,233.35 111.63,238.15L110.85,263.24C110.64,269.93 114.74,273.26 119.94,273.43C125.84,273.61 129.27,269.41 129.44,263.82L130.22,238.73C130.37,233.93 133.47,230.83 137.67,230.96C141.87,231.09 144.77,234.38 144.62,239.18L143.42,277.56C143.27,282.36 140.17,285.46 135.98,285.33"/>
	<path class="st1" d="M189.1,237.51C185.58,238.28 181.86,236.23 177.37,237.21C169.35,238.95 167.1,246.92 168.67,254.15C170.19,261.08 175.96,267.4 183.58,265.74C187.1,264.97 191.74,260.89 193.4,260.53C196.72,259.8 200.08,262.04 200.8,265.36C202.38,272.59 190.79,277.67 185.71,278.78C170.57,282.08 157.8,271.87 154.61,257.21C151.5,242.95 159.02,227.7 173.87,224.46C179.44,223.24 191.51,222.76 193,229.6C193.64,232.53 192.42,236.79 189.1,237.51"/>
	<path class="st1" d="M187.12,206.93C184.97,202.64 186.22,198.43 189.97,196.55C193.73,194.67 197.84,196.19 199.99,200.48L208.77,218.01L208.95,217.92C209.97,213.27 214.4,209.6 218.42,207.58C228.53,202.52 239.26,205.2 244.72,216.11L257.08,240.79C259.23,245.08 257.98,249.28 254.22,251.16C250.47,253.04 246.35,251.53 244.2,247.23L232.97,224.79C229.97,218.8 224.78,217.82 220.13,220.15C214.85,222.79 213.83,228.11 216.33,233.12L227.57,255.56C229.72,259.85 228.47,264.06 224.72,265.94C220.96,267.82 216.84,266.3 214.7,262.01Z"/>
	<path class="st1" d="M10.95,97.54C9.5,92.96 11.39,89.01 15.4,87.74C19.4,86.47 23.23,88.61 24.68,93.19L34.84,125.21L45.28,105.85C46.8,103.06 48.72,101.5 50.53,100.93C53.97,99.84 57.35,102.23 58.31,105.28C58.95,107.28 58.8,109.12 57.37,111.56L48.62,126.3L70.71,140.06C72.41,141.1 73.4,142.57 73.88,144.09C75.03,147.71 73.08,151.48 69.46,152.63C66.98,153.42 64.59,152.5 61.55,150.52L38.21,135.16L38.02,135.22L43.31,151.9C44.76,156.48 42.87,160.44 38.87,161.71C34.86,162.98 31.04,160.83 29.58,156.26Z"/>
	<path class="st1" d="M106.96,114.44C105.46,108.27 100.96,104.05 94.3,104.8C87.94,105.51 84.22,110.86 84.21,117ZM85.58,126.51C87.37,133.45 93.6,136.07 100.26,135.32C107.61,134.49 112.03,128.16 115.8,127.73C118.88,127.38 122.01,130.15 122.36,133.23C123.06,139.39 111.01,146.79 100.38,147.99C84.28,149.8 72.23,139.29 70.45,123.49C68.81,108.98 77.85,94.58 92.96,92.87C108.46,91.13 120.28,104.08 121.63,116.01C122.11,120.28 120.46,122.58 116.08,123.07Z"/>
	<path class="st1" d="M163.39,115.99C163.14,109.64 159.56,104.61 152.89,104.04C146.51,103.48 141.8,107.99 140.58,114.01ZM140.05,123.6C140.43,130.76 146.02,134.56 152.7,135.14C160.07,135.78 165.65,130.44 169.44,130.77C172.53,131.03 175.05,134.36 174.78,137.45C174.25,143.63 160.98,148.5 150.32,147.58C134.18,146.18 124.44,133.49 125.81,117.65C127.07,103.1 138.78,90.77 153.92,92.08C169.46,93.43 178.5,108.47 177.46,120.42C177.09,124.7 175.02,126.63 170.63,126.25Z"/>
	<path class="st1" d="M204.76,144.94C211.94,147.12 217.74,140.74 219.69,134.33C221.67,127.82 220.43,119.19 213.25,117.01C205.89,114.77 200.35,120.61 198.31,127.31C196.28,134 197.2,142.65 204.76,144.94M190,105.13C191.4,100.54 195.2,98.35 199.22,99.57C203.04,100.74 204.61,103.51 204.36,107.41C208.22,103.98 214.22,103.51 219.39,105.08C234.22,109.58 237.37,125.7 233.29,139.09C229.34,152.1 216.61,162.34 202.74,158.13C198.43,156.82 194.24,153.76 191.56,149.5L186.45,166.34C185.05,170.93 181.25,173.12 177.23,171.9C173.21,170.68 171.27,166.74 172.67,162.15Z"/>
</svg>