<svg xmlns="http://www.w3.org/2000/svg" width="32" height="61.17" viewBox="0 0 32 61.17">
	<style type="text/css">
		.st1{fill:#ffffff;}
		.st0{fill:#61c5cc;}
	</style>
	<path class="st0" d="M0,4L0,44.34C0,45.4 0.42,46.42 1.17,47.17L14.58,60.58C15.36,61.36 16.63,61.36 17.41,60.58L30.82,47.17C31.57,46.42 32,45.4 32,44.34L32,4C32,1.79 30.2,0 28,0L4,0C1.79,0 0,1.79 0,4"/>
	<path class="st1" d="M19.01,33L18.98,33C18.44,33 18,32.55 18,32L18,15.98C18,15.44 18.44,15 18.98,15L19.01,15C19.55,15 20,15.44 20,15.98L20,32C20,32.55 19.55,33 19.01,33"/>
	<path class="st1" d="M13.01,33L12.98,33C12.44,33 12,32.55 12,32L12,15.98C12,15.44 12.44,15 12.98,15L13.01,15C13.55,15 14,15.44 14,15.98L14,32C14,32.55 13.55,33 13.01,33"/>
</svg>